<svg width="800" height="260" viewBox="0 0 800 260" xmlns="http://www.w3.org/2000/svg">
  <!-- Circle with hand representing Breeg logo -->
  <path d="M420 100C340 100 280 160 280 240S340 380 420 380s140-60 140-140S500 100 420 100zm0 220c-45 0-80-35-80-80s35-80 80-80 80 35 80 80-35 80-80 80z" fill="#1976D2"/>
  
  <!-- Hand representation in the logo -->
  <path d="M390 230c-5-8-5-20 5-25s20 5 25 12c5 7 15 5 20-2 5-7 0-15-5-20-5-5-10-5-15 0-5 5-15 5-20 0s-5-15 0-20c5-5 15-5 20 0 5 5 15 5 20 0 5-5 5-15 0-20" stroke="#1976D2" stroke-width="10" fill="none" stroke-linecap="round"/>
  
  <!-- Horizontal bar in logo -->
  <path d="M200 150H20v30h50v90h30v-90h100v-30z" fill="#1976D2"/>
  
  <!-- Rectangle blocks at top -->
  <rect x="250" y="40" width="30" height="30" fill="#1976D2"/>
  <rect x="290" y="40" width="30" height="30" fill="#1976D2"/>
  
  <!-- Text part of the logo -->
  <path d="M590 140c0-20-15-40-35-40s-35 20-35 40h70zm-70 30c0 20 15 40 35 40s35-20 35-40h-70z" fill="#1976D2"/>
  <path d="M670 140c-10-30-35-40-70-40v25c20 0 35 5 45 15 10 10 10 20 10 30h-20l35 35 35-35h-20c0-10-5-20-15-30z" fill="#1976D2"/>
</svg>
