<svg width="800" height="250" viewBox="0 0 800 250" xmlns="http://www.w3.org/2000/svg">
  <path d="M550 50C475 50 400 100 400 175S475 300 550 300s150-50 150-125S625 50 550 50zm0 200c-40 0-75-35-75-75s35-75 75-75 75 35 75 75-35 75-75 75z" fill="#1976D2"/>
  <path d="M375 150H25v50h100v75h50v-75h200v-50zm25-25h25v25h-25v-25zm75 0h25v25h-25v-25zm50-25h25v-25h25v25h25v25h-75V100z" fill="#1976D2"/>
  <path d="M700 125c-15-45-55-75-100-75v50c20 0 45 10 55 30 5 10 5 15 5 20h-30l50 50 50-50h-30v-25z" fill="#1976D2"/>
</svg>
