<?xml version="1.0" encoding="UTF-8"?>
<svg width="80px" height="80px" viewBox="0 0 80 80" version="1.1" xmlns="http://www.w3.org/2000/svg" xmlns:xlink="http://www.w3.org/1999/xlink">
    <title>Offline Icon</title>
    <g stroke="none" fill="none" fill-rule="evenodd">
        <g transform="translate(4.000000, 4.000000)">
            <circle fill="#F3F4F6" cx="36" cy="36" r="36"></circle>
            <path d="M36,14 C47.598,14 57,23.402 57,35 C57,46.598 47.598,56 36,56 C24.402,56 15,46.598 15,35 C15,23.402 24.402,14 36,14 Z" stroke="#0264B4" stroke-width="2" stroke-linecap="round" stroke-dasharray="4,4"></path>
            <path d="M36,20 C44.284,20 51,26.716 51,35 C51,43.284 44.284,50 36,50 C27.716,50 21,43.284 21,35 C21,26.716 27.716,20 36,20 Z" stroke="#0264B4" stroke-width="2" stroke-linecap="round" stroke-dasharray="2,4"></path>
            <circle fill="#0264B4" cx="36" cy="35" r="8"></circle>
            <line x1="54" y1="18" x2="18" y2="54" stroke="#E53935" stroke-width="4" stroke-linecap="round"></line>
        </g>
    </g>
</svg>