<?xml version="1.0" encoding="UTF-8"?>
<svg width="192px" height="192px" viewBox="0 0 192 192" version="1.1" xmlns="http://www.w3.org/2000/svg" xmlns:xlink="http://www.w3.org/1999/xlink">
    <title>QR Scanner Icon</title>
    <defs>
        <linearGradient x1="0%" y1="0%" x2="100%" y2="100%" id="linearGradient-1">
            <stop stop-color="#0264B4" offset="0%"></stop>
            <stop stop-color="#0575D1" offset="100%"></stop>
        </linearGradient>
    </defs>
    <g stroke="none" fill="none" fill-rule="evenodd">
        <rect fill="url(#linearGradient-1)" x="0" y="0" width="192" height="192" rx="35"></rect>
        <g transform="translate(32.000000, 32.000000)" fill="#FFFFFF" fill-rule="nonzero">
            <path d="M120,60 L128,60 L128,68 L120,68 L120,60 Z M0,24 L8,24 L8,0 L0,0 L0,24 Z M24,8 L24,0 L0,0 L0,8 L24,8 Z M120,0 L120,8 L128,8 L128,0 L120,0 Z M104,8 L104,0 L96,0 L96,8 L104,8 Z M112,0 L112,8 L120,8 L120,0 L112,0 Z M120,8 L120,16 L128,16 L128,8 L120,8 Z M120,16 L120,24 L128,24 L128,16 L120,16 Z M120,24 L120,32 L128,32 L128,24 L120,24 Z M120,32 L120,40 L128,40 L128,32 L120,32 Z M120,40 L120,48 L128,48 L128,40 L120,40 Z M120,48 L120,56 L128,56 L128,48 L120,48 Z M8,0 L8,8 L16,8 L16,0 L8,0 Z M16,0 L16,8 L24,8 L24,0 L16,0 Z M8,8 L8,16 L16,16 L16,8 L8,8 Z M16,8 L16,16 L24,16 L24,8 L16,8 Z M8,16 L8,24 L16,24 L16,16 L8,16 Z M16,16 L16,24 L24,24 L24,16 L16,16 Z"></path>
            <path d="M0,128 L8,128 L8,104 L0,104 L0,128 Z M0,104 L8,104 L8,96 L0,96 L0,104 Z M8,128 L16,128 L16,120 L8,120 L8,128 Z M16,128 L24,128 L24,120 L16,120 L16,128 Z M0,96 L8,96 L8,88 L0,88 L0,96 Z M8,120 L16,120 L16,112 L8,112 L8,120 Z M16,120 L24,120 L24,112 L16,112 L16,120 Z M0,88 L8,88 L8,80 L0,80 L0,88 Z M8,112 L16,112 L16,104 L8,104 L8,112 Z M16,112 L24,112 L24,104 L16,104 L16,112 Z M0,80 L8,80 L8,72 L0,72 L0,80 Z M8,104 L16,104 L16,96 L8,96 L8,104 Z M16,104 L24,104 L24,96 L16,96 L16,104 Z"></path>
            <path d="M128,128 L128,120 L120,120 L120,128 L128,128 Z M128,120 L128,112 L120,112 L120,120 L128,120 Z M120,128 L120,120 L112,120 L112,128 L120,128 Z M112,128 L112,120 L104,120 L104,128 L112,128 Z M128,112 L128,104 L120,104 L120,112 L128,112 Z M120,120 L120,112 L112,112 L112,120 L120,120 Z M112,120 L112,112 L104,112 L104,120 L112,120 Z M128,104 L128,96 L120,96 L120,104 L128,104 Z M120,112 L120,104 L112,104 L112,112 L120,112 Z M112,112 L112,104 L104,104 L104,112 L112,112 Z M128,96 L128,88 L120,88 L120,96 L128,96 Z M120,104 L120,96 L112,96 L112,104 L120,104 Z M112,104 L112,96 L104,96 L104,104 L112,104 Z"></path>
            <rect x="32" y="32" width="64" height="64" rx="4"></rect>
            <rect stroke="#0264B4" stroke-width="4" x="48" y="48" width="32" height="32" rx="1"></rect>
            <path d="M36,60 L44,52 L48,56 L48,64 L40,64 L36,60 Z" stroke="#0264B4" stroke-width="2"></path>
            <path d="M89,69 L96,76 L92,80 L84,80 L80,76 L84,72" stroke="#0264B4" stroke-width="2" transform="translate(88.000000, 76.000000) scale(-1, 1) translate(-88.000000, -76.000000) "></path>
            <g transform="translate(56.000000, 56.000000)" fill="#0264B4" stroke="#FFFFFF" stroke-width="1">
                <rect x="0" y="0" width="4" height="4"></rect>
                <rect x="8" y="0" width="4" height="4"></rect>
                <rect x="16" y="0" width="4" height="4"></rect>
                <rect x="0" y="8" width="4" height="4"></rect>
                <rect x="8" y="8" width="4" height="4"></rect>
                <rect x="16" y="8" width="4" height="4"></rect>
                <rect x="0" y="16" width="4" height="4"></rect>
                <rect x="8" y="16" width="4" height="4"></rect>
                <rect x="16" y="16" width="4" height="4"></rect>
            </g>
        </g>
    </g>
</svg>